<?xml version="1.0" encoding="UTF-8"?>
<!DOCTYPE svg PUBLIC "-//W3C//DTD SVG 1.1//EN" "http://www.w3.org/Graphics/SVG/1.1/DTD/svg11.dtd">
<svg version="1.1" xmlns="http://www.w3.org/2000/svg" xmlns:xlink="http://www.w3.org/1999/xlink" x="0" y="0" width="256" height="256" viewBox="0, 0, 256, 256">
  <g id="image">
    <g>
      <path d="M86.764,124.171 C72.612,124.171 61.139,112.698 61.139,98.546 C61.139,84.394 72.612,72.921 86.764,72.921 C100.917,72.921 112.389,84.394 112.389,98.546 C112.389,112.698 100.917,124.171 86.764,124.171 z" fill="#DA2C41"/>
      <path d="M86.7,80.788 C96.459,80.788 104.4,88.73 104.4,98.488 C104.4,108.247 96.459,116.188 86.7,116.188 C76.941,116.188 69,108.247 69,98.488 C69,88.73 76.941,80.788 86.7,80.788 z M86.7,68.988 C70.404,68.988 57.2,82.192 57.2,98.488 C57.2,114.784 70.404,127.988 86.7,127.988 C102.996,127.988 116.2,114.784 116.2,98.488 C116.2,82.192 102.996,68.988 86.7,68.988 z" fill="#444444"/>
      <path d="M178.072,124.466 C183.891,125.202 195.15,146.104 201.732,177.851 L54.409,177.851 C60.022,162.909 69.547,147.734 76.75,147.734 C87.173,147.734 91.541,147.873 96.779,151.269 C102.559,154.997 108.759,160.105 121.226,160.105 C135.942,160.105 145.019,149.3 154.214,138.014 C162.322,128.087 169.924,124.171 178.072,124.171" fill="#DA2C41"/>
      <path d="M175.2,127.988 C180.51,128.59 190.186,149.275 196.192,175.2 L61.767,175.2 C66.888,162.999 74.216,151.588 80.788,151.588 C90.299,151.588 94.063,153.771 98.842,156.544 C104.117,159.589 110.713,163.388 122.088,163.388 C135.517,163.388 145.004,152.945 153.394,143.729 C160.792,135.623 167.766,127.988 175.2,127.988 z M175.2,116.188 C151.6,116.188 139.8,151.588 122.1,151.588 C104.4,151.588 104.412,139.788 80.8,139.788 C57.2,139.788 45.388,186.988 45.388,186.988 L210.6,186.988 C210.6,186.988 198.8,116.188 175.2,116.188 z" fill="#444444"/>
      <path d="M246,57.2 C246,44.173 235.427,33.6 222.4,33.6 L33.6,33.6 C20.573,33.6 10,44.173 10,57.2 L10,198.8 C10,211.827 20.573,222.4 33.6,222.4 L222.4,222.4 C235.427,222.4 246,211.827 246,198.8 L246,57.2 z M222.4,198.8 L33.6,198.8 L33.6,57.2 L222.435,57.2 L222.4,198.8 z" fill="#444444"/>
    </g>
  </g>
</svg>
