<?xml version="1.0" encoding="UTF-8"?>
<!DOCTYPE svg PUBLIC "-//W3C//DTD SVG 1.1//EN" "http://www.w3.org/Graphics/SVG/1.1/DTD/svg11.dtd">
<svg version="1.1" xmlns="http://www.w3.org/2000/svg" xmlns:xlink="http://www.w3.org/1999/xlink" x="0" y="0" width="100" height="80" viewBox="0, 0, 100, 80">
  <g id="image">
    <g>
      <path d="M32.578,38.438 C26.572,38.438 21.703,33.569 21.703,27.562 C21.703,21.556 26.572,16.688 32.578,16.688 C38.584,16.688 43.453,21.556 43.453,27.562 C43.453,33.569 38.584,38.438 32.578,38.438 z" fill="#DA2C41"/>
      <path d="M32.551,20.026 C36.692,20.026 40.062,23.397 40.062,27.538 C40.062,31.679 36.692,35.05 32.551,35.05 C28.409,35.05 25.039,31.679 25.039,27.538 C25.039,23.397 28.409,20.026 32.551,20.026 z M32.551,15.018 C25.635,15.018 20.031,20.622 20.031,27.538 C20.031,34.454 25.635,40.057 32.551,40.057 C39.467,40.057 45.07,34.454 45.07,27.538 C45.07,20.622 39.467,15.018 32.551,15.018 z" fill="#444444"/>
      <path d="M71.328,38.562 C73.798,38.875 78.576,47.746 81.369,61.219 L18.847,61.219 C21.229,54.878 25.271,48.438 28.328,48.438 C32.752,48.438 34.605,48.496 36.828,49.938 C39.281,51.52 41.912,53.688 47.203,53.688 C53.449,53.688 57.301,49.102 61.203,44.312 C64.644,40.099 67.87,38.438 71.328,38.438" fill="#DA2C41"/>
      <path d="M70.109,40.057 C72.363,40.313 76.469,49.092 79.018,60.094 L21.969,60.094 C24.143,54.916 27.253,50.073 30.042,50.073 C34.078,50.073 35.676,51 37.704,52.176 C39.942,53.468 42.742,55.081 47.569,55.081 C53.268,55.081 57.294,50.649 60.855,46.738 C63.995,43.298 66.954,40.057 70.109,40.057 z M70.109,35.05 C60.094,35.05 55.086,50.073 47.574,50.073 C40.062,50.073 40.068,45.065 30.047,45.065 C20.031,45.065 15.018,65.097 15.018,65.097 L85.133,65.097 C85.133,65.097 80.125,35.05 70.109,35.05 z" fill="#444444"/>
      <path d="M100.156,10.016 C100.156,4.487 95.669,0 90.141,0 L10.016,0 C4.487,0 0,4.487 0,10.016 L0,70.109 C0,75.638 4.487,80.125 10.016,80.125 L90.141,80.125 C95.669,80.125 100.156,75.638 100.156,70.109 L100.156,10.016 z M90.141,70.109 L10.016,70.109 L10.016,10.016 L90.156,10.016 L90.141,70.109 z" fill="#444444"/>
    </g>
  </g>
</svg>
